<svg width="30" height="30" viewBox="0 0 30 30" fill="none" xmlns="http://www.w3.org/2000/svg">
<path d="M20.9375 15C20.9375 15.5175 20.5175 15.9375 20 15.9375H15.9375V20C15.9375 20.5175 15 20.9375 15 20.9375C14.4825 20.9375 14.0625 20.5175 14.0625 20V15.9375H10C9.4825 15.9375 9.0625 15.5175 9.0625 15C9.0625 14.4825 9.4825 14.0625 10 14.0625H14.0625V10C14.0625 9.4825 14.4825 9.0625 15 9.0625C15.5175 9.0625 15.9375 9.4825 15.9375 10V14.0625H20C20.5175 14.0625 20.9375 14.4825 20.9375 15Z" fill="white"/>
</svg>
