<svg width="20" height="20" viewBox="0 0 20 20" fill="none" xmlns="http://www.w3.org/2000/svg">
<path d="M9.99962 10.6248C12.4121 10.6248 14.3746 8.66232 14.3746 6.24982C14.3746 3.83732 12.4121 1.87482 9.99962 1.87482C7.58712 1.87482 5.62462 3.83732 5.62462 6.24982C5.62462 8.66232 7.58712 10.6248 9.99962 10.6248ZM9.99962 3.12482C11.723 3.12482 13.1246 4.52648 13.1246 6.24982C13.1246 7.97315 11.723 9.37482 9.99962 9.37482C8.27629 9.37482 6.87462 7.97315 6.87462 6.24982C6.87462 4.52648 8.27629 3.12482 9.99962 3.12482ZM16.458 14.9724V15.8148C16.458 16.594 16.1738 17.3406 15.6571 17.9165C15.5338 18.0548 15.3629 18.1248 15.1913 18.1248C15.0429 18.1248 14.8938 18.0723 14.7746 17.9656C14.5171 17.7356 14.4963 17.3406 14.7263 17.0831C15.0371 16.7357 15.2088 16.2857 15.2088 15.8157V14.9732C15.2088 13.7115 14.3721 12.6198 13.1729 12.3189C12.9621 12.2656 12.7355 12.2948 12.5513 12.399C10.9671 13.2807 9.02878 13.2773 7.45461 12.4014C7.26628 12.2939 7.03963 12.2631 6.8288 12.3181C5.62963 12.6198 4.7921 13.7115 4.7921 14.9732V15.8157C4.7921 16.2865 4.9638 16.7365 5.27464 17.0831C5.50464 17.3406 5.48293 17.7356 5.22627 17.9656C4.96793 18.1964 4.57297 18.174 4.3438 17.9173C3.82713 17.3406 3.54297 16.594 3.54297 15.8157V14.9732C3.54297 13.1382 4.76877 11.5482 6.52377 11.1065C7.04294 10.9748 7.60711 11.0499 8.06878 11.3132C9.26044 11.9765 10.7371 11.979 11.9388 11.3106C12.3946 11.0506 12.9588 10.9765 13.4796 11.1073C15.2321 11.5465 16.458 13.1365 16.458 14.9724Z" fill="black"/>
</svg>
